<svg id="visual" viewBox="0 0 900 600" width="900" height="600" xmlns="http://www.w3.org/2000/svg" xmlns:xlink="http://www.w3.org/1999/xlink" version="1.1"><g stroke-width="1" stroke-linejoin="bevel"><path d="M515 249L581 0L372 268Z" fill="#0d1925" stroke="#0d1925"></path><path d="M581 0L222 0L372 268Z" fill="#00101c" stroke="#00101c"></path><path d="M222 0L0 315L372 268Z" fill="#5a6772" stroke="#5a6772"></path><path d="M0 0L0 315L222 0Z" fill="#16222d" stroke="#16222d"></path><path d="M900 275L900 0L581 0Z" fill="#3b4854" stroke="#3b4854"></path><path d="M652 600L900 275L515 249Z" fill="#45525e" stroke="#45525e"></path><path d="M515 249L900 275L581 0Z" fill="#1f2b37" stroke="#1f2b37"></path><path d="M356 600L515 249L372 268Z" fill="#0d1925" stroke="#0d1925"></path><path d="M0 315L356 600L372 268Z" fill="#3b4854" stroke="#3b4854"></path><path d="M356 600L652 600L515 249Z" fill="#505c68" stroke="#505c68"></path><path d="M0 315L0 600L356 600Z" fill="#5a6772" stroke="#5a6772"></path><path d="M652 600L900 600L900 275Z" fill="#505c68" stroke="#505c68"></path></g></svg>